<svg class="animated" id="freepik_stories-online-dating" xmlns="http://www.w3.org/2000/svg" viewBox="0 0 500 500" version="1.1" xmlns:xlink="http://www.w3.org/1999/xlink" xmlns:svgjs="http://svgjs.com/svgjs"><style>svg#freepik_stories-online-dating:not(.animated) .animable {opacity: 0;}svg#freepik_stories-online-dating.animated #freepik--text-baloon-2--inject-69 {animation: 1.5s Infinite  linear wind;animation-delay: 0s;}svg#freepik_stories-online-dating.animated #freepik--text-baloon-1--inject-69 {animation: 1.5s Infinite  linear heartbeat;animation-delay: 0s;}            @keyframes wind {                0% {                    transform: rotate( 0deg );                }                25% {                    transform: rotate( 1deg );                }                75% {                    transform: rotate( -1deg );                }            }                    @keyframes heartbeat {                0% {                    transform: scale(1);                }                10% {                    transform: scale(1.1);                }                30% {                    transform: scale(1);                }                40% {                    transform: scale(1);                }                50% {                    transform: scale(1.1);                }                60% {                    transform: scale(1);                }                100% {                    transform: scale(1);                }            }        </style><g id="freepik--background-simple--inject-69" class="animable" style="transform-origin: 245.899px 249.706px;"><path d="M476.06,178.19a170.53,170.53,0,0,0-15.83-45.45c-27.55-52.62-79.74-88-136.51-102.51-28.2-7.2-58.89-10.56-87.94-7.54-33.15,3.45-59.49,25.53-80.9,49.57l-1.24,1.4c-26.09,29.6-50.7,60.4-78.64,88.34C30,207-7,254,16,303c16.74,35.67,57.45,60,68,98,10,36,89,92,159,73,47.64-12.93,70.76-51.11,108.47-78.51,20.38-14.82,47.76-15.66,69.91-27.43,21.95-11.67,39.59-29.87,48.76-53.15C487,272.19,485,222.48,476.06,178.19Z" style="fill: rgb(220, 53, 69); transform-origin: 245.899px 249.706px;" id="elhvpflvvv516" class="animable"></path><g id="el3wjxb5cmori"><path d="M476.06,178.19a170.53,170.53,0,0,0-15.83-45.45c-27.55-52.62-79.74-88-136.51-102.51-28.2-7.2-58.89-10.56-87.94-7.54-33.15,3.45-59.49,25.53-80.9,49.57l-1.24,1.4c-26.09,29.6-50.7,60.4-78.64,88.34C30,207-7,254,16,303c16.74,35.67,57.45,60,68,98,10,36,89,92,159,73,47.64-12.93,70.76-51.11,108.47-78.51,20.38-14.82,47.76-15.66,69.91-27.43,21.95-11.67,39.59-29.87,48.76-53.15C487,272.19,485,222.48,476.06,178.19Z" style="fill: rgb(255, 255, 255); opacity: 0.7; transform-origin: 245.899px 249.706px;" class="animable"></path></g></g><g id="freepik--Plants--inject-69" class="animable animator-active" style="transform-origin: 252.039px 257.195px;"><path d="M29.75,74.07C33.5,75.7,42.67,75.5,42.68,75.5s-2-6-2.14-6.37C38.52,64.92,32.15,58,27,58.66a6.19,6.19,0,0,0-5,7.75C22.87,70,26.55,72.67,29.75,74.07Z" style="fill: rgb(220, 53, 69); transform-origin: 32.2299px 67.0619px;" id="el01xbajm6ri35" class="animable"></path><path d="M122.55,76.08c.08,0,1.67-6.09,1.73-6.49.64-4.63-.83-13.94-5.54-16.21a6.19,6.19,0,0,0-8.42,3.72c-1.26,3.47.34,7.73,2.24,10.65C114.78,71.19,122.55,76.08,122.55,76.08Z" style="fill: rgb(220, 53, 69); transform-origin: 117.147px 64.458px;" id="elgaj616f63jm" class="animable"></path><path d="M149.94,42.83c-5.2-.56-11.37,6.57-13.27,10.83-.17.37-2.07,6.43-2,6.43h.11c-1,1.11-2,2.32-3.14,3.67-2,2.49-4.31,5.33-6.57,8.59a108.35,108.35,0,0,0-6.82,10.86,79.61,79.61,0,0,0-5.82,13.11c0,.05,0,.11,0,.16,0-1.53,0-5.81-.08-6.14-.6-4.63-4.48-13.22-9.62-14.17A6.19,6.19,0,0,0,95.57,82c-.3,3.68,2.37,7.36,5,9.68,2.93,2.62,11.07,5.16,11.72,5.35a110,110,0,0,0-3.44,14.21c-.5,2.79-.92,5.62-1.3,8.47,0-1.33,0-2.51-.07-2.67-.6-4.63-4.48-13.23-9.62-14.18a6.19,6.19,0,0,0-7.13,5.82c-.3,3.68,2.36,7.36,5,9.68S105.2,123,107,123.6c-.13,1.09-.28,2.18-.41,3.27-.63,5.25-1.23,10.49-2,15.61-.26,1.8-.59,3.57-.91,5.34,0-1.18,0-2.17-.06-2.32-.6-4.63-4.48-13.22-9.62-14.17a6.17,6.17,0,0,0-7.13,5.82c-.31,3.67,2.36,7.36,5,9.68s8.87,4.43,11,5.13c-.38,1.81-.76,3.61-1.21,5.34-.33,1.17-.58,2.33-1,3.49s-.74,2.3-1.11,3.43c-.78,2.16-1.58,4.39-2.4,6.48-.56,1.46-1.12,2.83-1.67,4.22.28-1.79.76-5.31.77-5.61a24,24,0,0,0-3.23-11.69,7,7,0,0,0-.08-1.37A6.19,6.19,0,0,0,85.44,151c-5,1.34-8.25,10.21-8.49,14.87,0,.28.17,3.28.31,5.17-.25-1.1-.49-2.17-.76-3.3-.53-2.23-1.13-4.45-1.76-6.83l-1-3.46c-.33-1.16-.82-2.34-1.22-3.53-1-2.73-2.15-5.45-3.36-8.17,1.95-.47,8.87-2.23,11.65-4.36s5.7-5.6,5.67-9.29a6.18,6.18,0,0,0-6.68-6.33c-5.2.56-9.71,8.84-10.65,13.42-.06.28-.37,3.64-.5,5.48-.74-1.62-1.47-3.25-2.28-4.87-2.32-4.68-4.82-9.34-7.29-14-.76-1.43-1.49-2.86-2.24-4.29.7-.16,9-2.08,12.08-4.47,2.77-2.12,5.7-5.59,5.68-9.28a6.2,6.2,0,0,0-6.69-6.34c-5.19.57-9.7,8.85-10.65,13.42-.07.34-.5,5.17-.55,6.41C55,118.11,53.43,115,52,111.78a109.27,109.27,0,0,1-5.1-13.18c.33-.07,9-2,12.16-4.48,2.76-2.13,5.7-5.6,5.67-9.29A6.19,6.19,0,0,0,58,78.5c-5.2.56-9.71,8.84-10.65,13.41-.06.3-.4,4-.52,5.74l-.3,0a80.34,80.34,0,0,1-2.66-14c-.29-2.6-.42-5.09-.5-7.53C45,76,52.56,75,55.67,73.11S62,68.17,62.33,64.5a6.19,6.19,0,0,0-5.95-7c-5.23,0-10.62,7.73-12.06,12.17-.07.24-.6,2.78-1,4.64,0-1.1-.06-2.23-.06-3.29,0-3.95.26-7.57.51-10.77.15-1.82.33-3.47.51-5,1.52-1,7.56-5.31,9.42-8.36s3.3-7.27,2-10.7a6.18,6.18,0,0,0-8.52-3.5c-4.64,2.4-5.87,11.74-5.1,16.35.07.4,1.82,6.5,1.9,6.45a.44.44,0,0,0,.09-.07c-.2,1.48-.4,3.06-.59,4.8-.32,3.2-.65,6.82-.74,10.79a110.47,110.47,0,0,0,.31,12.82,80.46,80.46,0,0,0,2.37,14.14,1.09,1.09,0,0,1,0,.17C44.65,96.82,42.23,93.28,42,93c-3-3.53-11-8.55-15.84-6.51a6.19,6.19,0,0,0-2.74,8.79c1.78,3.23,6,4.83,9.48,5.33,3.9.57,12.08-1.8,12.73-2a111.39,111.39,0,0,0,5,13.75c1.13,2.6,2.34,5.2,3.59,7.78-.74-1.1-1.42-2.07-1.53-2.19-3.05-3.54-11-8.56-15.84-6.52a6.19,6.19,0,0,0-2.74,8.79c1.78,3.24,6,4.83,9.48,5.34s10.52-1.38,12.38-1.9c.49,1,1,2,1.46,3,2.37,4.72,4.76,9.42,7,14.1.77,1.65,1.48,3.31,2.19,5-.67-1-1.24-1.78-1.33-1.9-3.06-3.53-11-8.55-15.85-6.51a6.19,6.19,0,0,0-2.74,8.79c1.78,3.23,6,4.83,9.49,5.33s9.83-1.19,12-1.8c.67,1.71,1.35,3.43,1.93,5.12.37,1.16.8,2.25,1.11,3.44s.65,2.33,1,3.48c.54,2.24,1.1,4.54,1.57,6.73.34,1.52.63,3,.93,4.44-.75-1.65-2.3-4.85-2.46-5.1-2.48-3.95-9.6-10.13-14.67-8.84a6.19,6.19,0,0,0-4,8.27c1.27,3.47,5.23,5.69,8.57,6.71,3.67,1.13,11.79.1,12.81,0,.49,2.42.94,4.79,1.33,7,1.35,7.69,2.19,14.15,2.72,18.71h3.54c0-.11,0-.2,0-.31-.63-4.6-1.63-11.16-3.18-19-.48-2.47-1.05-5.09-1.66-7.79a65.8,65.8,0,0,0,7.15-3.36c2.67,2.9,9.53,6.29,10.42,6.72-.94,2.3-1.87,4.52-2.78,6.6-3.11,7.16-6,13-8,17.11h3.89c1.92-4.06,4.38-9.47,7-15.9,1-2.33,1.93-4.83,2.91-7.41,1,.2,9,1.84,12.78,1,3.4-.77,7.52-2.69,9-6.06a6.17,6.17,0,0,0-3.41-8.54c-5-1.67-12.52,4-15.29,7.71-.17.23-1.67,2.83-2.6,4.49.4-1.06.79-2.08,1.18-3.18.8-2.15,1.52-4.33,2.31-6.66l1-3.46c.37-1.15.61-2.41.93-3.62.67-2.83,1.22-5.73,1.7-8.67,1.89.69,8.63,3,12.13,2.79s7.84-1.52,9.85-4.61a6.19,6.19,0,0,0-2.08-9c-4.64-2.4-13,2-16.28,5.31-.21.21-2.32,2.84-3.45,4.3.28-1.76.57-3.52.79-5.32.64-5.18,1.13-10.45,1.64-15.7.16-1.61.34-3.21.5-4.81.67.25,8.63,3.21,12.54,2.94,3.48-.25,7.84-1.52,9.86-4.62a6.18,6.18,0,0,0-2.08-9c-4.65-2.4-13,2-16.28,5.31-.25.25-3.28,4-4,5,.38-3.54.78-7,1.32-10.5a109.31,109.31,0,0,1,3-13.81c.31.12,8.6,3.25,12.6,3,3.48-.24,7.84-1.52,9.86-4.61a6.19,6.19,0,0,0-2.08-9c-4.65-2.4-13,2-16.28,5.31-.22.22-2.53,3.1-3.6,4.5l-.26-.14A79.19,79.19,0,0,1,119,83.61c1.19-2.32,2.46-4.48,3.74-6.55,1.48.74,8.3,4,11.93,4.2s8-.66,10.31-3.51a6.19,6.19,0,0,0-1.08-9.14c-4.36-2.89-13.12.58-16.77,3.49-.2.16-2,2-3.36,3.35.59-.93,1.18-1.9,1.77-2.77,2.18-3.3,4.39-6.18,6.36-8.71,1.14-1.43,2.19-2.71,3.19-3.89,1.83,0,9.23-.26,12.47-1.77s6.76-4.25,7.52-7.86A6.19,6.19,0,0,0,149.94,42.83Z" style="fill: rgb(220, 53, 69); transform-origin: 88.9064px 115.851px;" id="el6orpm178mgg" class="animable"></path><path d="M474,439.48c-3.81-1.49-13-.93-13-.93s2.2,5.92,2.39,6.28c2.17,4.13,8.8,10.84,13.95,9.94a6.2,6.2,0,0,0,4.67-7.94C481,443.28,477.23,440.76,474,439.48Z" style="fill: rgb(220, 53, 69); transform-origin: 471.649px 446.649px;" id="elsaviu3dhcwl" class="animable"></path><path d="M381.17,441c-.09-.05-1.44,6.15-1.48,6.56-.47,4.64,1.36,13.89,6.15,16a6.18,6.18,0,0,0,8.27-4c1.13-3.52-.63-7.71-2.64-10.56C389.12,445.6,381.17,441,381.17,441Z" style="fill: rgb(220, 53, 69); transform-origin: 387.041px 452.509px;" id="el5g603cblixa" class="animable"></path><path d="M355.07,475.28c5.21.36,11.11-7,12.85-11.33.15-.37,1.82-6.5,1.72-6.5h-.11c.94-1.15,1.94-2.4,3-3.79,1.93-2.57,4.1-5.49,6.24-8.84a109.41,109.41,0,0,0,6.4-11.11,80.93,80.93,0,0,0,5.31-13.32.85.85,0,0,0,0-.17c0,1.54.27,5.81.32,6.14.78,4.6,5,13,10.16,13.79a6.17,6.17,0,0,0,6.9-6.08c.17-3.69-2.64-7.27-5.33-9.49-3-2.5-11.26-4.73-11.91-4.9a110.64,110.64,0,0,0,2.89-14.32c.39-2.82.7-5.66,1-8.52.07,1.32.15,2.5.17,2.67.78,4.6,5,13,10.16,13.79a6.17,6.17,0,0,0,6.9-6.08c.17-3.69-2.64-7.27-5.33-9.49s-9.7-4.29-11.56-4.8c.1-1.1.2-2.2.29-3.29.43-5.27.83-10.53,1.38-15.67.2-1.81.45-3.59.71-5.37.06,1.17.12,2.16.15,2.31.77,4.6,5,13,10.15,13.8a6.19,6.19,0,0,0,6.91-6.09c.16-3.69-2.65-7.26-5.33-9.49s-9-4.09-11.23-4.71c.31-1.81.62-3.63,1-5.38.29-1.18.48-2.34.84-3.52s.65-2.33,1-3.47c.7-2.19,1.41-4.45,2.15-6.57.5-1.47,1-2.87,1.51-4.28-.21,1.8-.56,5.34-.55,5.64a24.07,24.07,0,0,0,3.66,11.55,7.86,7.86,0,0,0,.14,1.37,6.18,6.18,0,0,0,7.76,5c5-1.53,7.86-10.52,7.92-15.18,0-.28-.29-3.27-.51-5.16.3,1.09.57,2.15.89,3.27.62,2.21,1.3,4.4,2,6.76.39,1.13.78,2.26,1.17,3.41s.91,2.32,1.36,3.49c1.1,2.69,2.35,5.36,3.67,8-1.94.54-8.79,2.57-11.48,4.81s-5.48,5.8-5.32,9.49a6.19,6.19,0,0,0,6.92,6.07c5.17-.76,9.36-9.2,10.13-13.81,0-.28.23-3.65.29-5.5.81,1.6,1.6,3.19,2.47,4.78,2.5,4.59,5.17,9.15,7.82,13.72.81,1.39,1.6,2.8,2.4,4.2-.69.18-8.89,2.42-11.9,4.92-2.69,2.23-5.49,5.81-5.32,9.5a6.18,6.18,0,0,0,6.92,6.07c5.17-.76,9.36-9.21,10.13-13.81.06-.35.31-5.19.31-6.43,1.76,3.09,3.48,6.18,5.05,9.3a107.09,107.09,0,0,1,5.6,13c-.32.09-8.88,2.38-12,4.94-2.68,2.23-5.48,5.81-5.31,9.5a6.18,6.18,0,0,0,6.91,6.07c5.18-.76,9.37-9.21,10.13-13.81.05-.3.25-4,.3-5.75l.3,0a79.89,79.89,0,0,1,3.19,13.85c.39,2.58.62,5.07.78,7.5-1.63.26-9.11,1.55-12.14,3.55s-6.09,5.17-6.33,8.85a6.19,6.19,0,0,0,6.21,6.8c5.22-.19,10.32-8.12,11.59-12.62.06-.24.49-2.8.78-4.67.05,1.1.14,2.23.17,3.28.15,3.95,0,7.58-.09,10.79-.09,1.82-.2,3.47-.32,5-1.48,1.1-7.36,5.6-9.1,8.71s-3,7.4-1.53,10.78a6.19,6.19,0,0,0,8.64,3.17c4.55-2.58,5.41-12,4.47-16.54-.08-.39-2.07-6.43-2.14-6.37a.44.44,0,0,0-.09.07c.15-1.48.29-3.07.41-4.81.19-3.22.38-6.85.32-10.82a108.63,108.63,0,0,0-.79-12.8,81.47,81.47,0,0,0-2.91-14l-.06-.16c.87,1.26,3.42,4.7,3.65,4.94,3.19,3.41,11.35,8.13,16.08,5.9a6.18,6.18,0,0,0,2.4-8.88c-1.9-3.17-6.21-4.6-9.68-5-3.91-.42-12,2.26-12.64,2.48A109.76,109.76,0,0,0,451.67,402c-1.22-2.57-2.54-5.11-3.89-7.64.79,1.06,1.5,2,1.62,2.13,3.19,3.41,11.35,8.13,16.08,5.9a6.18,6.18,0,0,0,2.4-8.88c-1.9-3.17-6.21-4.6-9.68-5s-10.46,1.77-12.29,2.36c-.53-1-1-1.93-1.58-2.9-2.55-4.62-5.11-9.23-7.49-13.83-.84-1.62-1.6-3.24-2.37-4.86.7.94,1.3,1.73,1.4,1.84,3.19,3.41,11.35,8.13,16.08,5.91a6.19,6.19,0,0,0,2.4-8.89c-1.9-3.17-6.21-4.6-9.68-5s-9.78,1.57-12,2.26c-.74-1.68-1.49-3.37-2.13-5-.41-1.15-.89-2.23-1.24-3.4l-1.1-3.44c-.62-2.21-1.28-4.49-1.83-6.66-.39-1.51-.74-3-1.09-4.41.81,1.62,2.47,4.76,2.64,5,2.64,3.85,10,9.75,15,8.27a6.19,6.19,0,0,0,3.72-8.42c-1.39-3.41-5.44-5.49-8.81-6.38-3.71-1-11.79.36-12.8.53-.58-2.41-1.12-4.76-1.6-7-1.64-7.63-2.73-14.06-3.43-18.59l-3.54.14c0,.1,0,.19.05.3.81,4.57,2.05,11.09,3.9,18.83.58,2.45,1.25,5.06,2,7.72a69.26,69.26,0,0,0-7,3.63c-2.78-2.79-9.76-5.92-10.66-6.31.84-2.33,1.69-4.59,2.52-6.7,2.83-7.28,5.47-13.24,7.38-17.4l-3.88.15c-1.77,4.12-4,9.62-6.4,16.15-.87,2.36-1.75,4.9-2.63,7.52-1-.17-9.09-1.5-12.81-.51-3.36.9-7.41,3-8.8,6.4a6.18,6.18,0,0,0,3.74,8.41c5,1.47,12.36-4.44,15-8.3.16-.22,1.56-2.88,2.42-4.57-.35,1.07-.71,2.1-1.06,3.21-.71,2.18-1.35,4.39-2.05,6.75-.3,1.15-.6,2.32-.9,3.5s-.52,2.43-.79,3.65c-.57,2.85-1,5.77-1.37,8.72-1.92-.61-8.75-2.7-12.23-2.32s-7.78,1.82-9.67,5a6.19,6.19,0,0,0,2.42,8.88c4.73,2.22,12.89-2.52,16.07-5.93.2-.22,2.2-2.92,3.28-4.43-.21,1.77-.43,3.54-.59,5.35-.44,5.2-.73,10.48-1,15.75-.09,1.61-.21,3.22-.32,4.83-.67-.23-8.74-2.89-12.64-2.46-3.46.37-7.77,1.82-9.67,5a6.19,6.19,0,0,0,2.42,8.88c4.73,2.21,12.89-2.52,16.07-5.93.24-.26,3.12-4.16,3.81-5.19-.24,3.54-.51,7.07-.92,10.54a109.65,109.65,0,0,1-2.49,13.91c-.31-.11-8.71-2.92-12.71-2.48-3.46.37-7.78,1.82-9.67,5a6.2,6.2,0,0,0,2.42,8.89c4.73,2.21,12.89-2.52,16.07-5.94.21-.22,2.4-3.19,3.42-4.63l.27.13a79.59,79.59,0,0,1-5,13.31c-1.1,2.37-2.28,4.57-3.48,6.69-1.51-.68-8.46-3.73-12.09-3.74s-7.93,1-10.16,3.9a6.17,6.17,0,0,0,1.43,9.09c4.46,2.72,13.08-1.08,16.62-4.13.19-.17,2-2.07,3.23-3.47-.56.95-1.11,1.94-1.67,2.84-2,3.37-4.15,6.33-6,8.94-1.08,1.48-2.09,2.79-3,4-1.83.1-9.22.61-12.39,2.25s-6.6,4.5-7.22,8.13A6.19,6.19,0,0,0,355.07,475.28Z" style="fill: rgb(220, 53, 69); transform-origin: 415.011px 399.109px;" id="el8o47sm2e9et" class="animable"></path></g><g id="freepik--Hearts--inject-69" class="animable" style="transform-origin: 254.487px 255.906px;"><g id="el94e2afdq2pj"><g style="opacity: 0.2; transform-origin: 260.046px 262.376px;" class="animable"><path d="M367.93,36.79s-.53,0-1.49,0" style="fill: none; stroke: rgb(0, 0, 0); stroke-linecap: round; stroke-linejoin: round; transform-origin: 367.185px 36.79px;" id="elt3n4wqgok3" class="animable"></path><path d="M363.44,36.87c-10.93.61-39.26,4.83-56.43,31.37C287.76,98,299.7,149.62,298.43,183c-1.65,43.29-11.16,92.81-49.65,118.78-42.95,29-99.89,22.93-147.13,40.64C38.76,366,28.93,427.87,49.57,459.31c36.81,56.1,117.06,19,150.22-19.36,14.47-16.75,26.07-37.8,43.16-52,14.7-12.21,33.78-17.77,52.27-21,47.25-8.3,97.67-16.68,140.42-39.6,44.29-23.74,54.42-75.43,35.66-119.59-18.63-43.83-62-73-107.3-83.51C264.06,101,233.1,135.16,182.19,75.46" style="fill: none; stroke: rgb(0, 0, 0); stroke-linecap: round; stroke-linejoin: round; stroke-dasharray: 3.00298, 3.00298; transform-origin: 260.046px 262.416px;" id="elyslknkfjljp" class="animable"></path><path d="M181.22,74.3l-1-1.15" style="fill: none; stroke: rgb(0, 0, 0); stroke-linecap: round; stroke-linejoin: round; transform-origin: 180.72px 73.725px;" id="el5fbnc16d86m" class="animable"></path></g></g><g id="elwc0j43vjore"><path d="M122.71,440.43a6.36,6.36,0,0,0-12-2.85,6.36,6.36,0,0,0-12,2.85c0,3.25,2.48,6.56,4.94,8.48a75.4,75.4,0,0,0,7,4.63,72.83,72.83,0,0,0,7-4.63C120,447.09,122.71,443.53,122.71,440.43Z" style="fill: none; stroke: rgb(0, 0, 0); stroke-linecap: round; stroke-linejoin: round; opacity: 0.2; transform-origin: 110.71px 443.849px;" class="animable"></path></g><g id="elan829y0766w"><path d="M95.44,458.82a8.35,8.35,0,0,0-15.81-3.74,8.35,8.35,0,0,0-15.81,3.74c0,4.27,3.25,8.6,6.48,11.13,1.62,1.27,9,6.21,9.23,6.07.21.14,7.6-4.8,9.22-6.07C91.81,467.55,95.44,462.89,95.44,458.82Z" style="fill: none; stroke: rgb(0, 0, 0); stroke-linecap: round; stroke-linejoin: round; opacity: 0.2; transform-origin: 79.63px 463.252px;" class="animable"></path></g><g id="el1fkcpb3x2dx"><path d="M330.28,466.68A8.34,8.34,0,0,0,314.47,463a8.34,8.34,0,0,0-15.81,3.73c0,4.27,3.26,8.6,6.49,11.13,1.62,1.27,9,6.21,9.22,6.07.22.14,7.6-4.8,9.22-6.07C326.66,475.41,330.28,470.75,330.28,466.68Z" style="fill: none; stroke: rgb(0, 0, 0); stroke-linecap: round; stroke-linejoin: round; opacity: 0.2; transform-origin: 314.47px 471.151px;" class="animable"></path></g><g id="elkc89a808zmo"><path d="M440.14,51.26a5.62,5.62,0,0,0-10.65-2.52,5.62,5.62,0,0,0-10.64,2.52c0,2.87,2.19,5.79,4.37,7.49a69.13,69.13,0,0,0,6.2,4.09,67.64,67.64,0,0,0,6.21-4.09C437.69,57.13,440.14,54,440.14,51.26Z" style="fill: none; stroke: rgb(0, 0, 0); stroke-linecap: round; stroke-linejoin: round; opacity: 0.2; transform-origin: 429.495px 54.2334px;" class="animable"></path></g><g id="elj0jrg4f5djo"><path d="M50,442.34a5.61,5.61,0,0,0-10.64-2.52,5.62,5.62,0,0,0-10.65,2.52c0,2.87,2.2,5.78,4.37,7.49a65.14,65.14,0,0,0,6.21,4.08,65.14,65.14,0,0,0,6.21-4.08C47.6,448.21,50,445.07,50,442.34Z" style="fill: none; stroke: rgb(0, 0, 0); stroke-linecap: round; stroke-linejoin: round; opacity: 0.2; transform-origin: 39.3551px 445.302px;" class="animable"></path></g><g id="eli2r251ohxg"><path d="M293.83,453.79a5.62,5.62,0,0,0-10.65-2.52,5.62,5.62,0,0,0-10.64,2.52c0,2.87,2.19,5.79,4.37,7.49a69.13,69.13,0,0,0,6.2,4.09,67.64,67.64,0,0,0,6.21-4.09C291.39,459.67,293.83,456.53,293.83,453.79Z" style="fill: none; stroke: rgb(0, 0, 0); stroke-linecap: round; stroke-linejoin: round; opacity: 0.2; transform-origin: 283.185px 456.763px;" class="animable"></path></g><g id="elsjp0yymuro"><path d="M259.84,56.45a5.61,5.61,0,0,0-10.64-2.52,5.61,5.61,0,0,0-10.64,2.52c0,2.87,2.19,5.78,4.36,7.49A70,70,0,0,0,249.13,68a67.17,67.17,0,0,0,6.21-4.08C257.4,62.32,259.84,59.18,259.84,56.45Z" style="fill: none; stroke: rgb(0, 0, 0); stroke-linecap: round; stroke-linejoin: round; opacity: 0.2; transform-origin: 249.2px 59.402px;" class="animable"></path></g><g id="elri9ceaa9bp"><path d="M189.57,53.22a5.61,5.61,0,0,0-10.64-2.51,5.62,5.62,0,0,0-10.65,2.51c0,2.87,2.2,5.79,4.37,7.49a65.59,65.59,0,0,0,6.21,4.09,65.59,65.59,0,0,0,6.21-4.09C187.13,59.1,189.57,56,189.57,53.22Z" style="fill: none; stroke: rgb(0, 0, 0); stroke-linecap: round; stroke-linejoin: round; opacity: 0.2; transform-origin: 178.925px 56.192px;" class="animable"></path></g><g id="elyopdnzb5loa"><path d="M407.07,32.64a8.77,8.77,0,0,0-16.62-3.93,8.77,8.77,0,0,0-16.62,3.93c0,4.48,3.42,9,6.82,11.7,1.7,1.33,9.46,6.52,9.69,6.38.23.14,8-5,9.7-6.38C403.26,41.82,407.07,36.92,407.07,32.64Z" style="fill: none; stroke: rgb(0, 0, 0); stroke-linecap: round; stroke-linejoin: round; opacity: 0.2; transform-origin: 390.45px 37.2865px;" class="animable"></path></g></g><g id="freepik--device-2--inject-69" class="animable" style="transform-origin: 356.66px 254.55px;"><path d="M439.93,426.56,290.45,430.9a14.52,14.52,0,0,1-14.93-14.09L266.24,97.48a14.52,14.52,0,0,1,14.09-14.94L429.81,78.2a14.51,14.51,0,0,1,14.94,14.09L454,411.62A14.53,14.53,0,0,1,439.93,426.56Z" style="fill: rgb(38, 50, 56); stroke: rgb(38, 50, 56); stroke-linecap: round; stroke-linejoin: round; transform-origin: 360.12px 254.55px;" id="eljw2nndklr4" class="animable"></path><path d="M433,426.56,283.54,430.9a14.52,14.52,0,0,1-14.94-14.09L259.32,97.48a14.53,14.53,0,0,1,14.1-14.94L422.9,78.2a14.51,14.51,0,0,1,14.93,14.09l9.28,319.33A14.51,14.51,0,0,1,433,426.56Z" style="fill: rgb(255, 255, 255); stroke: rgb(38, 50, 56); stroke-miterlimit: 10; transform-origin: 353.215px 254.55px;" id="el0dog38kzuw4e" class="animable"></path><path d="M363.37,417.24a6.07,6.07,0,1,0-5.89,6.25A6.07,6.07,0,0,0,363.37,417.24Z" style="fill: none; stroke: rgb(255, 255, 255); stroke-linecap: round; stroke-linejoin: round; transform-origin: 357.303px 417.423px;" id="el6tffhzpv7p8" class="animable"></path><g id="el93friiz4cxs"><rect x="271.91" y="103.96" width="162.7" height="304.16" style="fill: rgb(145, 145, 145); stroke: rgb(38, 50, 56); stroke-linecap: round; stroke-linejoin: round; transform-origin: 353.26px 256.04px; transform: rotate(-1.66deg);" class="animable"></rect></g><g id="eli3k3zmh3m2r"><rect x="411.34" y="105.17" width="13.49" height="7.4" style="fill: none; stroke: rgb(38, 50, 56); stroke-linecap: round; stroke-linejoin: round; stroke-width: 0.821067px; transform-origin: 418.085px 108.87px; transform: rotate(-1.66deg);" class="animable"></rect></g><g id="el1fdsgs1n0c3"><rect x="411.34" y="105.21" width="10.52" height="7.4" style="fill: rgb(38, 50, 56); stroke: rgb(38, 50, 56); stroke-linecap: round; stroke-linejoin: round; stroke-width: 0.725073px; transform-origin: 416.6px 108.91px; transform: rotate(-1.66deg);" class="animable"></rect></g><g id="eljgeum32wc3f"><rect x="424.8" y="107.02" width="1.9" height="3.26" style="fill: rgb(38, 50, 56); stroke: rgb(38, 50, 56); stroke-linecap: round; stroke-linejoin: round; stroke-width: 0.725073px; transform-origin: 425.75px 108.65px; transform: rotate(-1.66deg);" class="animable"></rect></g><g id="elxgs4y5yby2"><rect x="271.41" y="111.69" width="2.47" height="4.24" style="fill: rgb(38, 50, 56); stroke: rgb(38, 50, 56); stroke-linecap: round; stroke-linejoin: round; stroke-width: 0.883086px; transform-origin: 272.645px 113.81px; transform: rotate(-1.66deg);" class="animable"></rect></g><g id="eljdnzl2507l"><rect x="275.27" y="110.09" width="2.47" height="5.73" style="fill: rgb(38, 50, 56); stroke: rgb(38, 50, 56); stroke-linecap: round; stroke-linejoin: round; stroke-width: 0.883086px; transform-origin: 276.505px 112.955px; transform: rotate(-1.67deg);" class="animable"></rect></g><g id="elieq5b0vp9j"><rect x="279.13" y="108.22" width="2.47" height="7.49" style="fill: rgb(38, 50, 56); stroke: rgb(38, 50, 56); stroke-linecap: round; stroke-linejoin: round; stroke-width: 0.883086px; transform-origin: 280.365px 111.965px; transform: rotate(-1.67deg);" class="animable"></rect></g></g><g id="freepik--device-1--inject-69" class="animable" style="transform-origin: 151.395px 254.65px;"><path d="M213.79,432.8,64.48,424.47a14.52,14.52,0,0,1-13.69-15.31l17.8-319A14.52,14.52,0,0,1,83.89,76.5l149.32,8.33a14.53,14.53,0,0,1,13.69,15.31l-17.8,319A14.53,14.53,0,0,1,213.79,432.8Z" style="fill: rgb(38, 50, 56); stroke: rgb(38, 50, 56); stroke-linecap: round; stroke-linejoin: round; transform-origin: 148.845px 254.65px;" id="el90h5jzooko" class="animable"></path><path d="M218.88,432.8,69.57,424.47a14.52,14.52,0,0,1-13.69-15.31l17.8-319A14.53,14.53,0,0,1,89,76.5L238.3,84.83A14.53,14.53,0,0,1,252,100.14l-17.8,319A14.52,14.52,0,0,1,218.88,432.8Z" style="fill: rgb(255, 255, 255); stroke: rgb(38, 50, 56); stroke-miterlimit: 10; transform-origin: 153.94px 254.65px;" id="elrl7b755unt8" class="animable"></path><path d="M150.27,417.62a6.07,6.07,0,1,0-6.4,5.72A6.07,6.07,0,0,0,150.27,417.62Z" style="fill: none; stroke: rgb(255, 255, 255); stroke-linecap: round; stroke-linejoin: round; transform-origin: 144.21px 417.279px;" id="elnec139du2vg" class="animable"></path><g id="elmjky2arxnpr"><rect x="72.5" y="104.06" width="162.7" height="304.16" style="fill: rgb(145, 145, 145); stroke: rgb(38, 50, 56); stroke-linecap: round; stroke-linejoin: round; transform-origin: 153.85px 256.14px; transform: rotate(3.19deg);" class="animable"></rect></g><g id="ele1s976pjmg"><rect x="224.16" y="111.29" width="13.49" height="7.4" style="fill: none; stroke: rgb(38, 50, 56); stroke-linecap: round; stroke-linejoin: round; stroke-width: 0.821067px; transform-origin: 230.905px 114.99px; transform: rotate(3.19deg);" class="animable"></rect></g><g id="elrvswahu1t49"><rect x="224.16" y="111.21" width="10.52" height="7.4" style="fill: rgb(38, 50, 56); stroke: rgb(38, 50, 56); stroke-linecap: round; stroke-linejoin: round; stroke-width: 0.725073px; transform-origin: 229.42px 114.91px; transform: rotate(3.19deg);" class="animable"></rect></g><g id="ely0cmc0u9hfs"><rect x="237.61" y="113.79" width="1.9" height="3.26" style="fill: rgb(38, 50, 56); stroke: rgb(38, 50, 56); stroke-linecap: round; stroke-linejoin: round; stroke-width: 0.725073px; transform-origin: 238.56px 115.42px; transform: rotate(3.19deg);" class="animable"></rect></g><g id="el2fs4cbttbn2"><rect x="84.33" y="105.48" width="2.47" height="4.24" style="fill: rgb(38, 50, 56); stroke: rgb(38, 50, 56); stroke-linecap: round; stroke-linejoin: round; stroke-width: 0.883086px; transform-origin: 85.565px 107.6px; transform: rotate(3.19deg);" class="animable"></rect></g><g id="el8x7ppb46ngh"><rect x="88.25" y="104.21" width="2.47" height="5.73" style="fill: rgb(38, 50, 56); stroke: rgb(38, 50, 56); stroke-linecap: round; stroke-linejoin: round; stroke-width: 0.883086px; transform-origin: 89.485px 107.075px; transform: rotate(3.19deg);" class="animable"></rect></g><g id="elo46lyauji2b"><rect x="92.18" y="102.66" width="2.47" height="7.49" style="fill: rgb(38, 50, 56); stroke: rgb(38, 50, 56); stroke-linecap: round; stroke-linejoin: round; stroke-width: 0.883086px; transform-origin: 93.415px 106.405px; transform: rotate(3.2deg);" class="animable"></rect></g></g><g id="freepik--character-2--inject-69" class="animable" style="transform-origin: 349.848px 286.191px;"><path d="M381.44,180.24S390.08,191,391.69,201s-5.48,15.06-8,18.86a26.63,26.63,0,0,0-4.26,11.95c-.33,3.74,4.95,4.24,4.95,4.24s-3.63,3.39-12.34,5.18-13.73-5.08-13.73-5.08,8.77-7,10.58-12.8,2.44-21.76,1.89-25.47-2.2-7.82-2.23-8.92S371,176.82,381.44,180.24Z" style="fill: rgb(38, 50, 56); stroke: rgb(38, 50, 56); stroke-linecap: round; stroke-linejoin: round; transform-origin: 375.118px 210.556px;" id="el2fdef2jhwcu" class="animable"></path><path d="M402.89,407.48c-1.08-8.11-4.6-31-4.6-31s-26.32-10.73-53.19-9S313,374.69,313,374.69l-4.72,35.22,10,0Z" style="fill: rgb(38, 50, 56); stroke: rgb(38, 50, 56); stroke-linecap: round; stroke-linejoin: round; transform-origin: 355.585px 388.601px;" id="elyn34k8b2h4" class="animable"></path><path d="M383.65,320.31l-1.12-7.53,26.68.74s-21.53-31.43-23.61-40.75-9.05-20-15.87-25.55-17.7-5.53-17.7-5.53l-5.73.47,1.57-8.52-18.6-15.48-.51,3.34s-2.14,9.74-3.19,15.21-3.11,7.35-3.11,7.35-11.19-10.56-18.19-11.87-16.22,3.8-17.5,11.7,5,74.92,5.7,79.74,9.73,24.76,11.42,30.76S313,376.2,313,376.2s14.56,11.68,39.09,13.08,47.75-11.67,47.75-11.67-8-25.78-10.08-34.79S383.65,320.31,383.65,320.31Zm-64,25.15s-4.14-17.72-4.92-23.45-2.15-22-2.15-22l11.9,24.45Z" style="fill: rgb(220, 53, 69); stroke: rgb(38, 50, 56); stroke-linecap: round; stroke-linejoin: round; transform-origin: 347.904px 303.772px;" id="el9cwt02rolg" class="animable"></path><line x1="305.71" y1="281.99" x2="304.13" y2="277.86" style="fill: none; stroke: rgb(38, 50, 56); stroke-linecap: round; stroke-linejoin: round; transform-origin: 304.92px 279.925px;" id="eljlle1bpiqao" class="animable"></line><line x1="312.59" y1="300" x2="308.1" y2="288.23" style="fill: none; stroke: rgb(38, 50, 56); stroke-linecap: round; stroke-linejoin: round; transform-origin: 310.345px 294.115px;" id="el7kyeql7uxbu" class="animable"></line><path d="M377.91,318.67s-6.78,16.52-15.5,28.88" style="fill: none; stroke: rgb(38, 50, 56); stroke-linecap: round; stroke-linejoin: round; transform-origin: 370.16px 333.11px;" id="elugfln6hxj6a" class="animable"></path><path d="M351.11,371c-.83.85-1.66,1.65-2.46,2.37" style="fill: none; stroke: rgb(38, 50, 56); stroke-linecap: round; stroke-linejoin: round; transform-origin: 349.88px 372.185px;" id="elmi4u21ntafc" class="animable"></path><path d="M374.26,338.73s-10.12,17.29-20,28.78" style="fill: none; stroke: rgb(38, 50, 56); stroke-linecap: round; stroke-linejoin: round; transform-origin: 364.26px 353.12px;" id="elidmdpfs9zyg" class="animable"></path><path d="M352,241.69l-5.73.47,1.57-8.52-18.6-15.48-.51,3.34s-2.14,9.74-3.19,15.21-3.11,7.35-3.11,7.35a83.57,83.57,0,0,0-11.38-8.86c1.53,5,7.39,22.2,17.09,28.35,11.4,7.23,23.62,1.13,26.12-6.5a68,68,0,0,0,2.7-14.91A35.72,35.72,0,0,0,352,241.69Z" style="fill: rgb(255, 255, 255); stroke: rgb(38, 50, 56); stroke-linecap: round; stroke-linejoin: round; transform-origin: 334.005px 242.472px;" id="eluuke53r03ib" class="animable"></path><polygon points="344.47 241.22 343.97 248.83 349.92 242.14 344.47 241.22" style="fill: rgb(38, 50, 56); stroke: rgb(38, 50, 56); stroke-linecap: round; stroke-linejoin: round; transform-origin: 346.945px 245.025px;" id="eldn6xmuirjng" class="animable"></polygon><path d="M369.26,272.64s1.47-11.84,1.34-16.37-2.86-15.34-4.16-18.33-8.09-7.93-8.62-5.19.59,10,.64,11.47-.68,7.89-.68,7.89.13-5.75-2.36-8.1-4.28-1.69-4.23-.18l0,1.51s2.86,4.76,3,8.69-.26,11.8-.19,14.22,4.79,8.63,5.74,10.11,9.73,12.12,9.73,12.12l8.27-6.89Z" style="fill: rgb(255, 255, 255); stroke: rgb(38, 50, 56); stroke-linecap: round; stroke-linejoin: round; transform-origin: 364.465px 261.215px;" id="eluowaxnlgp98" class="animable"></path><path d="M369.55,251.16s-5.18-11.64-7.27-10.68,3,10.8,3,10.8l1,2.4s-4,8-4.54,10.41-.47,4.55.16,5.44" style="fill: rgb(255, 255, 255); stroke: rgb(38, 50, 56); stroke-linecap: round; stroke-linejoin: round; transform-origin: 365.464px 254.977px;" id="elmu82vzhm4h" class="animable"></path><path d="M373.92,276.74l-15.42,21s11.14,8.75,17.65,14.3,20.19,18.17,24.76,19.24,11.81.57,12.16-8.21-2.74-11.11-8.06-17S373.92,276.74,373.92,276.74Z" style="fill: rgb(220, 53, 69); stroke: rgb(38, 50, 56); stroke-linecap: round; stroke-linejoin: round; transform-origin: 385.798px 304.214px;" id="elyo2l1x8gm6m" class="animable"></path><path d="M375.41,192.31a27.06,27.06,0,0,1,4.26,14c-.05,4.71-5.05,13-6.18,17.15s-4.82,10-15.31,14.13c-8,3.14-12.32,6.25-15.85,3.21s-12.64-16.51-12.64-16.51,17.88-18.27,23.68-23.77S367.8,189.71,375.41,192.31Z" style="fill: rgb(255, 255, 255); stroke: rgb(38, 50, 56); stroke-linecap: round; stroke-linejoin: round; transform-origin: 354.68px 216.836px;" id="el0nakb7suu6pp" class="animable"></path><path d="M363.24,224.81a6.28,6.28,0,0,1-5.46.82" style="fill: none; stroke: rgb(38, 50, 56); stroke-linecap: round; stroke-linejoin: round; transform-origin: 360.51px 225.366px;" id="el9mh2e5xrh0f" class="animable"></path><path d="M349.44,225.21s.77,3.71,6.3,5.52" style="fill: none; stroke: rgb(38, 50, 56); stroke-linecap: round; stroke-linejoin: round; transform-origin: 352.59px 227.97px;" id="eltf0538mwuhr" class="animable"></path><path d="M353.72,209.27a1.81,1.81,0,1,0,2.2-1.79A2,2,0,0,0,353.72,209.27Z" style="fill: rgb(38, 50, 56); transform-origin: 355.53px 209.263px;" id="elht0v6qopsms" class="animable"></path><path d="M360.83,209.57a2.63,2.63,0,0,0-3.05-2.85" style="fill: none; stroke: rgb(38, 50, 56); stroke-linecap: round; stroke-linejoin: round; transform-origin: 359.311px 208.127px;" id="elc33u03wt485" class="animable"></path><path d="M369,214.43a1.49,1.49,0,1,0,1.81-1.47A1.67,1.67,0,0,0,369,214.43Z" style="fill: rgb(38, 50, 56); transform-origin: 370.49px 214.429px;" id="elodrbr03z51" class="animable"></path><path d="M374.33,215.09a2.63,2.63,0,0,0-3.06-2.85" style="fill: none; stroke: rgb(38, 50, 56); stroke-linecap: round; stroke-linejoin: round; transform-origin: 372.806px 213.646px;" id="el4ft2z535lwv" class="animable"></path><path d="M365.75,205a10.09,10.09,0,0,0-5.13-2.48,8.7,8.7,0,0,0-5.34,1.28" style="fill: none; stroke: rgb(38, 50, 56); stroke-linecap: round; stroke-linejoin: round; transform-origin: 360.515px 203.744px;" id="elbm4truu13mc" class="animable"></path><path d="M372.4,209.58s2.51.22,3.64,3.72" style="fill: none; stroke: rgb(38, 50, 56); stroke-linecap: round; stroke-linejoin: round; transform-origin: 374.22px 211.44px;" id="elu48rzokgiv" class="animable"></path><path d="M383.84,183.76s-11.35,10.86-17.75,15.89-9,4.24-15,12.1-11.53,14.57-19.69,17.65-18.22,0-22-3.06-4.71-5.55-4.71-5.55,5.92-.2,5.52-5.86c-1.73-24.06-1.83-27.15.22-34.89s14.18-17.9,32.12-17.56,33.93,11.82,37.41,14S385.18,180.59,383.84,183.76Z" style="fill: rgb(38, 50, 56); stroke: rgb(38, 50, 56); stroke-linecap: round; stroke-linejoin: round; transform-origin: 344.491px 196.574px;" id="eljnu5vmu40b" class="animable"></path><path d="M318.66,215.12a7.64,7.64,0,0,1-5-4.6" style="fill: none; stroke: rgb(105, 105, 105); stroke-linecap: round; stroke-linejoin: round; transform-origin: 316.16px 212.82px;" id="elv44f0kd7nm" class="animable"></path><path d="M368.07,185.27c-6.83,5.6-17.16,14.37-24,21.64a28.3,28.3,0,0,1-19.29,9.1" style="fill: none; stroke: rgb(105, 105, 105); stroke-linecap: round; stroke-linejoin: round; transform-origin: 346.425px 200.64px;" id="elf2egox768te" class="animable"></path><path d="M375.1,179.63s-1,.77-2.64,2.09" style="fill: none; stroke: rgb(105, 105, 105); stroke-linecap: round; stroke-linejoin: round; transform-origin: 373.78px 180.675px;" id="elge39pdegby" class="animable"></path><path d="M328.54,203.34a20.53,20.53,0,0,1-4.54,1.87c-8.58,2.07-11.19-9.22-11.19-9.22" style="fill: none; stroke: rgb(105, 105, 105); stroke-linecap: round; stroke-linejoin: round; transform-origin: 320.675px 200.727px;" id="elbl3o5f4fcit" class="animable"></path><path d="M356.12,183.82a274.65,274.65,0,0,1-22.39,16.49" style="fill: none; stroke: rgb(105, 105, 105); stroke-linecap: round; stroke-linejoin: round; transform-origin: 344.925px 192.065px;" id="elp83zj0f3mxh" class="animable"></path><path d="M315.36,189.55s2.35,2.66,9.15,2,14.34-7.24,14.34-7.24" style="fill: none; stroke: rgb(105, 105, 105); stroke-linecap: round; stroke-linejoin: round; transform-origin: 327.105px 187.983px;" id="el5hc47ihk2d" class="animable"></path><line x1="319.66" y1="345.46" x2="313.21" y2="373.17" style="fill: none; stroke: rgb(38, 50, 56); stroke-linecap: round; stroke-linejoin: round; transform-origin: 316.435px 359.315px;" id="el1o1xpey42zo" class="animable"></line></g><g id="freepik--character-1--inject-69" class="animable" style="transform-origin: 151.685px 279.792px;"><path d="M190.66,410.38l6.69-51.16s-4.15-7-20.9-8-56.71,15-56.71,15l-9.88,39.62Z" style="fill: rgb(38, 50, 56); stroke: rgb(38, 50, 56); stroke-linecap: round; stroke-linejoin: round; transform-origin: 153.605px 380.778px;" id="el87znvjhl0ab" class="animable"></path><path d="M133.41,219l-33.7-14.6,28.53-22.93-3.64-7.93s-32.86,10.89-40.35,15S61.4,199,61.2,202.66s37.9,37.08,48,42.64,23.24,14.93,23.24,14.93-4,56.09-4.19,58.81-14.79,62.58-14.89,64.39,6.52,4.17,17.44,3.88,26.19-13.53,30-16.95,13.13-7.44,17.23-7.67,19.27-3.47,19.27-3.47l22.6-71.4S229,247,221.62,241.58s-38-11.2-38-11.2l-33.4-3.68Z" style="fill: rgb(220, 53, 69); stroke: rgb(38, 50, 56); stroke-linecap: round; stroke-linejoin: round; transform-origin: 142.853px 280.437px;" id="eldcfsragqbs5" class="animable"></path><path d="M151.75,361.51c3.48-2.52,8-5.12,12.48-5.81A139.4,139.4,0,0,1,183,354.29" style="fill: rgb(220, 53, 69); stroke: rgb(38, 50, 56); stroke-linecap: round; stroke-linejoin: round; transform-origin: 167.375px 357.9px;" id="elu6po0nx01qc" class="animable"></path><path d="M145.36,367s.74-.77,2-1.92" style="fill: rgb(220, 53, 69); stroke: rgb(38, 50, 56); stroke-linecap: round; stroke-linejoin: round; transform-origin: 146.36px 366.04px;" id="elj6ku1e3wjn" class="animable"></path><path d="M158.34,352.46a24.7,24.7,0,0,0-4.37,1.68" style="fill: rgb(220, 53, 69); stroke: rgb(38, 50, 56); stroke-linecap: round; stroke-linejoin: round; transform-origin: 156.155px 353.3px;" id="ela0vfinttmji" class="animable"></path><path d="M178.27,351.56A58.38,58.38,0,0,0,163,351.5" style="fill: rgb(220, 53, 69); stroke: rgb(38, 50, 56); stroke-linecap: round; stroke-linejoin: round; transform-origin: 170.635px 351.294px;" id="el0kicxsml8ne" class="animable"></path><line x1="125.99" y1="236.89" x2="124.91" y2="233.01" style="fill: none; stroke: rgb(38, 50, 56); stroke-linecap: round; stroke-linejoin: round; transform-origin: 125.45px 234.95px;" id="eltfqbcpgujer" class="animable"></line><line x1="132.47" y1="260.23" x2="127.16" y2="241.1" style="fill: none; stroke: rgb(38, 50, 56); stroke-linecap: round; stroke-linejoin: round; transform-origin: 129.815px 250.665px;" id="elwbwnjy1i93d" class="animable"></line><path d="M99.71,204.35a42.52,42.52,0,0,1-14-.78" style="fill: none; stroke: rgb(38, 50, 56); stroke-linecap: round; stroke-linejoin: round; transform-origin: 92.71px 204.088px;" id="el6xp1e3lg0bu" class="animable"></path><path d="M200.15,277.35l15.75,42.49s-19.43,30.71-22.83,34.6A91.89,91.89,0,0,1,184,363l-5.88-.33c-2.72-.15-9.43-1.89-10.94.75s-1.24,5.84-6.29,6.92-.61,2.69,2.56,2.87,6.57-3.72,7.92-3.65l3.17.18,14.11,15.77,6.72-14.61s29.34-29.25,34.17-34.43,12.63-14.73,12.63-14.73S228,258.29,226.58,250.49s-5.63-13-19.34-11.53" style="fill: rgb(220, 53, 69); stroke: rgb(38, 50, 56); stroke-linecap: round; stroke-linejoin: round; transform-origin: 200.387px 312.111px;" id="elb4s5k0nfw1e" class="animable"></path><path d="M187.61,359.87c-2,1.82-3.65,3.15-3.65,3.15l-5.88-.33c-2.72-.15-9.43-1.89-10.94.75s-1.24,5.84-6.29,6.92-.61,2.69,2.56,2.87,6.57-3.72,7.92-3.65l3.17.18,14.11,15.77,6.72-14.61,1.81-1.81Z" style="fill: rgb(255, 255, 255); stroke: rgb(38, 50, 56); stroke-linecap: round; stroke-linejoin: round; transform-origin: 177.852px 372.7px;" id="elbf90z22vqja" class="animable"></path><polygon points="163.37 261.14 155.75 253.19 145.37 260.94 157.87 239.32 164.99 241.87 163.37 261.14" style="fill: rgb(255, 255, 255); stroke: rgb(38, 50, 56); stroke-linecap: round; stroke-linejoin: round; transform-origin: 155.18px 250.23px;" id="el7lro08ett4g" class="animable"></polygon><path d="M155.14,240s4.8,10.48,6.16,14.86,2.07,6.3,2.07,6.3l21.21-33.23s-5.76-12.41-6.35-16.21A16.4,16.4,0,0,0,176.4,206s-.88,11-8.87,19.13A110.11,110.11,0,0,0,155.14,240Z" style="fill: rgb(255, 255, 255); stroke: rgb(38, 50, 56); stroke-linecap: round; stroke-linejoin: round; transform-origin: 169.86px 233.58px;" id="eldo0b6r88hj4" class="animable"></path><path d="M155.14,240s1.79,3.91,3.5,8l9.41-17.13-3.37-2.7A103.72,103.72,0,0,0,155.14,240Z" style="fill: rgb(38, 50, 56); stroke: rgb(38, 50, 56); stroke-linecap: round; stroke-linejoin: round; transform-origin: 161.595px 238.085px;" id="elo9aopwfu11" class="animable"></path><polygon points="165.79 251.59 163.37 261.14 172.38 253.84 165.79 251.59" style="fill: rgb(255, 255, 255); stroke: rgb(38, 50, 56); stroke-linecap: round; stroke-linejoin: round; transform-origin: 167.875px 256.365px;" id="elyt2dacd4aol" class="animable"></polygon><polygon points="183.56 222.21 165.79 251.59 177.07 266.2 191.38 232.93 183.56 222.21" style="fill: rgb(255, 255, 255); stroke: rgb(38, 50, 56); stroke-linecap: round; stroke-linejoin: round; transform-origin: 178.585px 244.205px;" id="elycvmx1imlja" class="animable"></polygon><path d="M122.66,195.21s4.72,17,6.8,23.31,5.82,11.65,11.3,14.92,7.65,8,13.83,8.33,12.25-6.87,13.75-9.49,8.65-10,9.23-15.66.9-11.28.9-11.28a15.64,15.64,0,0,0,3.67-12.48c-1.21-7.35-5.41-9.47-5.41-9.47s-4.6-14.28-19-17.24-33,10.83-33.79,15.91a102.75,102.75,0,0,0-1,12.09Z" style="fill: rgb(255, 255, 255); stroke: rgb(38, 50, 56); stroke-linecap: round; stroke-linejoin: round; transform-origin: 152.48px 203.76px;" id="el7m0hz4wybl2" class="animable"></path><path d="M137.36,210.53s-1.67,5.84-.45,8.06,4.86,0,6.53-1" style="fill: none; stroke: rgb(38, 50, 56); stroke-linecap: round; stroke-linejoin: round; transform-origin: 139.952px 215.037px;" id="elvl7wqenilw" class="animable"></path><path d="M138.79,223.55s3.65,2.36,9.25-1.37a18.84,18.84,0,0,0,7.26-9.3" style="fill: none; stroke: rgb(38, 50, 56); stroke-linecap: round; stroke-linejoin: round; transform-origin: 147.045px 218.583px;" id="ely6bh0rb6gtp" class="animable"></path><path d="M154.93,201.84a2.08,2.08,0,1,1-2.47-2.13A2.35,2.35,0,0,1,154.93,201.84Z" style="fill: rgb(38, 50, 56); transform-origin: 152.851px 201.77px;" id="eldqgm99z64td" class="animable"></path><path d="M146.78,202a3,3,0,0,1,3.58-3.17" style="fill: none; stroke: rgb(38, 50, 56); stroke-linecap: round; stroke-linejoin: round; transform-origin: 148.566px 200.386px;" id="elhv6u5kew1sw" class="animable"></path><path d="M137.29,207.28a1.71,1.71,0,1,1-2-1.74A1.92,1.92,0,0,1,137.29,207.28Z" style="fill: rgb(38, 50, 56); transform-origin: 135.58px 207.237px;" id="elw77o90hyxx" class="animable"></path><path d="M131.14,207.87a3,3,0,0,1,3.59-3.17" style="fill: none; stroke: rgb(38, 50, 56); stroke-linecap: round; stroke-linejoin: round; transform-origin: 132.931px 206.255px;" id="elkq9w9aa9fs" class="animable"></path><path d="M127.6,205s.23-1.84,3.16-3.4,3.79-1.64,3.79-1.64" style="fill: none; stroke: rgb(38, 50, 56); stroke-linecap: round; stroke-linejoin: round; transform-origin: 131.075px 202.48px;" id="elosbqw7o2yei" class="animable"></path><path d="M141.28,196.59a11.68,11.68,0,0,1,5.4-1.79,19,19,0,0,1,6.63.74" style="fill: none; stroke: rgb(38, 50, 56); stroke-linecap: round; stroke-linejoin: round; transform-origin: 147.295px 195.675px;" id="elxbdlbr7m8xk" class="animable"></path><path d="M137.87,151.32s-8.06-2.92-14.36-1.9-19.11,12.07-17.12,17.1,10.45.86,9.71,3.83-11.18,7.31-12.74,14.88,3.06,16.32,10.69,16.74,11.51-13,12.43-9.15,4.3,4.34,10.54-.78,12.16-14.65,14-12.08,2,10.78,3.92,11.16,5.21-1.9,7.4-.41,3.59,6.77,5.35,5.77,1.05-3.5,2-5.63,1.08-6.43,5.48-6.81c1.69-.14,2.56-.13,2.56-.13s3.32-13.77-1.56-22.79-22-12.18-26-11.31a44.07,44.07,0,0,0-6.92,2.08Z" style="fill: rgb(38, 50, 56); stroke: rgb(38, 50, 56); stroke-linecap: round; stroke-linejoin: round; transform-origin: 140.945px 175.592px;" id="ell1c4z81x1a" class="animable"></path><path d="M172.44,174.33a11.13,11.13,0,0,1,3.29,2.16" style="fill: none; stroke: rgb(105, 105, 105); stroke-linecap: round; stroke-linejoin: round; transform-origin: 174.085px 175.41px;" id="el484717ykh8m" class="animable"></path><path d="M154.24,178s7.59-5.3,14.84-4.54" style="fill: none; stroke: rgb(105, 105, 105); stroke-linecap: round; stroke-linejoin: round; transform-origin: 161.66px 175.693px;" id="eld32e4zzlykq" class="animable"></path><path d="M139.36,170.26c-5.18,2.32-11.38,6.31-13.16,12.57-3.21,11.32,12.18,2,14.63-1s-5.27-3.48-7.24-.86" style="fill: none; stroke: rgb(105, 105, 105); stroke-linecap: round; stroke-linejoin: round; transform-origin: 133.534px 179.274px;" id="elfqcj2ye7dxa" class="animable"></path><path d="M147.08,167.61a41.57,41.57,0,0,0-4.85,1.49" style="fill: none; stroke: rgb(105, 105, 105); stroke-linecap: round; stroke-linejoin: round; transform-origin: 144.655px 168.355px;" id="elxqltzwxhi8d" class="animable"></path><path d="M149.72,158.48a54.48,54.48,0,0,0-14.21,4.38c-9.83,4.92-23.7,16.89-25.57,25.89" style="fill: none; stroke: rgb(105, 105, 105); stroke-linecap: round; stroke-linejoin: round; transform-origin: 129.83px 173.615px;" id="el0a3kv3sh71m5" class="animable"></path><path d="M159,157.35s-2.66.11-6.48.67" style="fill: none; stroke: rgb(105, 105, 105); stroke-linecap: round; stroke-linejoin: round; transform-origin: 155.76px 157.685px;" id="elj3zkc16j5mc" class="animable"></path></g><g id="freepik--text-baloon-2--inject-69" class="animable" style="transform-origin: 310.855px 144.015px;"><path d="M289.87,119.68h42a7,7,0,0,1,7,7v22.67a7,7,0,0,1-7,7h-30l1.64,12-10.16-12h-3.51a7,7,0,0,1-7-7V126.68A7,7,0,0,1,289.87,119.68Z" style="fill: rgb(255, 255, 255); stroke: rgb(38, 50, 56); stroke-linecap: round; stroke-linejoin: round; transform-origin: 310.855px 144.015px;" id="el8a5odfox05b" class="animable"></path><g id="elnw2l09x0xo"><circle cx="298.97" cy="137.22" r="9.56" style="fill: rgb(220, 53, 69); stroke: rgb(38, 50, 56); stroke-linecap: round; stroke-linejoin: round; transform-origin: 298.97px 137.22px; transform: rotate(-43.05deg);" class="animable"></circle></g><path d="M295.14,133.87a4,4,0,0,1,4.31-.48" style="fill: none; stroke: rgb(38, 50, 56); stroke-linecap: round; stroke-linejoin: round; transform-origin: 297.295px 133.42px;" id="ell6sf71dtisr" class="animable"></path><path d="M304.23,133.87a2,2,0,0,1,3.1,1" style="fill: none; stroke: rgb(38, 50, 56); stroke-linecap: round; stroke-linejoin: round; transform-origin: 305.78px 134.172px;" id="eluxtlvsyssie" class="animable"></path><path d="M297.06,138.41a5.28,5.28,0,0,0,7.79.27" style="fill: none; stroke: rgb(38, 50, 56); stroke-linecap: round; stroke-linejoin: round; transform-origin: 300.955px 139.337px;" id="eldpmre1g52tn" class="animable"></path><g id="el9wbwut3iii7"><path d="M297.06,137.58a2.51,2.51,0,1,0-2.51,2.51A2.51,2.51,0,0,0,297.06,137.58Z" style="opacity: 0.2; transform-origin: 294.55px 137.58px;" class="animable"></path></g><g id="eldpqgy4w31yr"><path d="M308.05,138.11a2.21,2.21,0,1,0-2.21,2.22A2.21,2.21,0,0,0,308.05,138.11Z" style="opacity: 0.2; transform-origin: 305.84px 138.12px;" class="animable"></path></g><g id="ele9uqagh6w2g"><circle cx="321.64" cy="137.22" r="9.56" style="fill: rgb(220, 53, 69); stroke: rgb(38, 50, 56); stroke-linecap: round; stroke-linejoin: round; transform-origin: 321.64px 137.22px; transform: rotate(-40.65deg);" class="animable"></circle></g><path d="M317.81,133.87a4,4,0,0,1,4.3-.48" style="fill: none; stroke: rgb(38, 50, 56); stroke-linecap: round; stroke-linejoin: round; transform-origin: 319.96px 133.422px;" id="el7oawioyptht" class="animable"></path><path d="M326.89,133.87a2,2,0,0,1,3.11,1" style="fill: none; stroke: rgb(38, 50, 56); stroke-linecap: round; stroke-linejoin: round; transform-origin: 328.445px 134.169px;" id="elbx65xrj4jy6" class="animable"></path><path d="M319.72,138.41a5.28,5.28,0,0,0,7.79.27" style="fill: none; stroke: rgb(38, 50, 56); stroke-linecap: round; stroke-linejoin: round; transform-origin: 323.615px 139.337px;" id="el9qsdl5o3n0o" class="animable"></path><g id="el2qobu80nzrc"><path d="M319.72,137.58a2.51,2.51,0,1,0-2.51,2.51A2.51,2.51,0,0,0,319.72,137.58Z" style="opacity: 0.2; transform-origin: 317.21px 137.58px;" class="animable"></path></g><g id="elxf8zyypfv2g"><path d="M330.72,138.11a2.21,2.21,0,1,0-2.21,2.22A2.21,2.21,0,0,0,330.72,138.11Z" style="opacity: 0.2; transform-origin: 328.51px 138.12px;" class="animable"></path></g></g><g id="freepik--text-baloon-1--inject-69" class="animable" style="transform-origin: 195px 144.015px;"><path d="M216,119.68H174a7,7,0,0,0-7,7v22.67a7,7,0,0,0,7,7h30l-1.64,12,10.16-12H216a7,7,0,0,0,7-7V126.68A7,7,0,0,0,216,119.68Z" style="fill: rgb(255, 255, 255); stroke: rgb(38, 50, 56); stroke-linecap: round; stroke-linejoin: round; transform-origin: 195px 144.015px;" id="elow2dv8q5v39" class="animable"></path><path d="M210.53,133.59a8.35,8.35,0,0,0-15.81-3.74,8.35,8.35,0,0,0-15.81,3.74c0,4.26,3.26,8.6,6.49,11.13,1.62,1.27,9,6.2,9.22,6.07.22.13,7.6-4.8,9.22-6.07C206.91,142.32,210.53,137.66,210.53,133.59Z" style="fill: rgb(220, 53, 69); stroke: rgb(38, 50, 56); stroke-linecap: round; stroke-linejoin: round; transform-origin: 194.72px 138.022px;" id="elky8vnrof77" class="animable"></path></g><defs>     <filter id="active" height="200%">         <feMorphology in="SourceAlpha" result="DILATED" operator="dilate" radius="2"></feMorphology>                <feFlood flood-color="#32DFEC" flood-opacity="1" result="PINK"></feFlood>        <feComposite in="PINK" in2="DILATED" operator="in" result="OUTLINE"></feComposite>        <feMerge>            <feMergeNode in="OUTLINE"></feMergeNode>            <feMergeNode in="SourceGraphic"></feMergeNode>        </feMerge>    </filter>    <filter id="hover" height="200%">        <feMorphology in="SourceAlpha" result="DILATED" operator="dilate" radius="2"></feMorphology>                <feFlood flood-color="#ff0000" flood-opacity="0.5" result="PINK"></feFlood>        <feComposite in="PINK" in2="DILATED" operator="in" result="OUTLINE"></feComposite>        <feMerge>            <feMergeNode in="OUTLINE"></feMergeNode>            <feMergeNode in="SourceGraphic"></feMergeNode>        </feMerge>            <feColorMatrix type="matrix" values="0   0   0   0   0                0   1   0   0   0                0   0   0   0   0                0   0   0   1   0 "></feColorMatrix>    </filter></defs></svg>